<svg width="566" height="148" viewBox="0 0 566 148" fill="none" xmlns="http://www.w3.org/2000/svg">
<path d="M106.851 115.95C85.8506 107.45 0.850586 30.9496 0.850586 30.9496H85.8506C85.8506 30.9496 117.351 54.9496 136.351 62.4496C155.351 69.9496 316.351 88.9496 328.851 88.9496H450.351C463.351 88.9496 497.351 36.4496 497.351 36.4496C497.351 36.4496 461.351 7.94953 464.351 4.44956C467.351 0.949589 552.351 -2.05044 559.351 4.44956C566.351 10.9496 566.351 84.9495 562.851 88.9496C559.351 92.9496 528.851 61.4496 528.851 61.4496C528.851 61.4496 464.351 143.45 452.351 146.45C440.351 149.45 340.351 146.45 328.851 146.45C317.351 146.45 127.851 124.45 106.851 115.95Z" fill="#40D9D7"/>
</svg>
