<svg width="564" height="162" viewBox="0 0 564 162" fill="none" xmlns="http://www.w3.org/2000/svg">
<path d="M105.944 35.4449C84.9549 44.744 0 128.436 0 128.436H84.9549C84.9549 128.436 116.438 102.18 135.428 93.9747C154.418 85.7696 315.333 64.9833 327.826 64.9833H449.262C462.255 64.9833 496.237 122.419 496.237 122.419C496.237 122.419 460.256 153.599 463.255 157.428C466.253 161.257 551.208 164.539 558.204 157.428C565.2 150.316 565.2 69.3594 561.702 64.9833C558.204 60.6072 527.72 95.0687 527.72 95.0687C527.72 95.0687 463.255 5.35939 451.261 2.07733C439.267 -1.20471 339.32 2.07733 327.826 2.07733C316.332 2.07733 126.933 26.1457 105.944 35.4449Z" fill="#FF5964"/>
</svg>
